<svg width="512" height="512" viewBox="0 0 512 512" fill="none" xmlns="http://www.w3.org/2000/svg">
  <rect width="512" height="512" rx="100" fill="#1A1C1E"/>
  
  <!-- Subtle Topographic Lines -->
  <path d="M0 400C100 380 200 420 300 400C400 380 512 420 512 420" stroke="#2D3135" stroke-width="2" opacity="0.5"/>
  <path d="M0 300C120 280 220 320 320 300C420 280 512 320 512 320" stroke="#2D3135" stroke-width="2" opacity="0.5"/>
  <path d="M0 200C140 180 240 220 340 200C440 180 512 220 512 220" stroke="#2D3135" stroke-width="2" opacity="0.5"/>
  
  <!-- Compass Ring -->
  <circle cx="256" cy="256" r="160" stroke="#3B4248" stroke-width="8"/>
  
  <!-- Needle -->
  <path d="M256 120L286 256L256 392L226 256L256 120Z" fill="#3B82F6"/>
  <path d="M256 120L256 392L226 256L256 120Z" fill="#60A5FA"/>
  
  <!-- Accent Point -->
  <circle cx="256" cy="120" r="10" fill="#FACC15"/>
</svg>
